HIERARCHY
ROOT Hips
{
  OFFSET 3.13124 94.3669 -3.18751
  CHANNELS  6 Xposition Yposition Zposition Zrotation Xrotation Yrotation
  JOINT LeftUpLeg
  {
    OFFSET 8.64259 1.95398 -2.38835
    CHANNELS 3 Zrotation Xrotation Yrotation
    JOINT LeftLeg
    {
      OFFSET 43.7702 0 0
      CHANNELS 3 Zrotation Xrotation Yrotation
      JOINT LeftFoot
      {
        OFFSET 40.6238 0 0
        CHANNELS 3 Zrotation Xrotation Yrotation
        JOINT LeftToeBase
        {
          OFFSET 12.7242 0 0
          CHANNELS 3 Zrotation Xrotation Yrotation
          End Site
          {
            OFFSET 0 0 0
          }
        }
      }
    }
  }
  JOINT RightUpLeg
  {
    OFFSET -8.2249 1.95398 -2.59336
    CHANNELS 3 Zrotation Xrotation Yrotation
    JOINT RightLeg
    {
      OFFSET 43.5653 0 0
      CHANNELS 3 Zrotation Xrotation Yrotation
      JOINT RightFoot
      {
        OFFSET 40.6238 0 0
        CHANNELS 3 Zrotation Xrotation Yrotation
        JOINT RightToeBase
        {
          OFFSET 12.7242 0 0
          CHANNELS 3 Zrotation Xrotation Yrotation
          End Site
          {
            OFFSET 0 0 0
          }
        }
      }
    }
  }
  JOINT Spine
  {
    OFFSET 0.165834 0.87714 6.61349
    CHANNELS 3 Zrotation Xrotation Yrotation
    JOINT Spine1
    {
      OFFSET 7.38962 1.71661e-005 0
      CHANNELS 3 Zrotation Xrotation Yrotation
      JOINT Spine2
      {
        OFFSET 11.9445 1.14441e-005 0
        CHANNELS 3 Zrotation Xrotation Yrotation
        JOINT Spine3
        {
          OFFSET 14.7254 4.19617e-005 0
          CHANNELS 3 Zrotation Xrotation Yrotation
          JOINT Spine4
          {
            OFFSET 10.9679 0 0
            CHANNELS 3 Zrotation Xrotation Yrotation
            JOINT RightShoulder
            {
              OFFSET 2.46616 -1.6653 3.69651
              CHANNELS 3 Zrotation Xrotation Yrotation
              JOINT RightArm
              {
                OFFSET 13.0012 0 0
                CHANNELS 3 Zrotation Xrotation Yrotation
                JOINT RightForeArm
                {
                  OFFSET 28.7848 1.52588e-005 0
                  CHANNELS 3 Zrotation Xrotation Yrotation
                  JOINT RightHand
                  {
                    OFFSET 26.5688 1.52588e-005 0
                    CHANNELS 3 Zrotation Xrotation Yrotation
                    End Site
                    {
                      OFFSET 0 0 0
                    }
                  }
                }
              }
            }
            JOINT LeftShoulder
            {
              OFFSET 2.38034 -1.29275 -3.75231
              CHANNELS 3 Zrotation Xrotation Yrotation
              JOINT LeftArm
              {
                OFFSET 16.3182 6.10352e-005 0
                CHANNELS 3 Zrotation Xrotation Yrotation
                JOINT LeftForeArm
                {
                  OFFSET 27.0901 0 0
                  CHANNELS 3 Zrotation Xrotation Yrotation
                  JOINT LeftHand
                  {
                    OFFSET 24.5451 1.52588e-005 0
                    CHANNELS 3 Zrotation Xrotation Yrotation
                    End Site
                    {
                      OFFSET 0 0 0
                    }
                  }
                }
              }
            }
            JOINT Neck
            {
              OFFSET 5.0226 -0.0266342 0
              CHANNELS 3 Zrotation Xrotation Yrotation
              JOINT Head
              {
                OFFSET 6.69363 2.86102e-005 0
                CHANNELS 3 Zrotation Xrotation Yrotation
                End Site
                {
                  OFFSET 0 0 0
                }
              }
            }
          }
        }
      }
    }
  }
}
MOTION
Frames:	17
Frame Time:	0.0333333
0.824446 98.0743 -20.5348 138.062 -89.9944 138.162 -170.607 3.11704 91.7792 -9.57828 9.06267 3.43181 63.7051 0.575042 0.262165 28.7808 5.48165e-006 3.92305e-006 -179.81 2.2411 90.6906 -8.31632 0.320539 0.0104718 62.9512 -1.31968 -0.674759 28.7808 1.43713e-005 2.75681e-005 0.007995 6.3411 -90.1003 14.1921 -1.26446e-005 -0.000482945 2.52118 -3.33102e-005 -0.00048844 -20.014 0.000130122 -0.000464736 -0.00132416 0.000131875 -0.000466741 100.796 -19.1581 -85.5202 -10.2895 35.3113 -13.6829 5.12166 0.0448147 -8.55555 -5.37983 -0.320016 -0.0162396 -79.3039 -22.0554 93.6359 12.0276 -36.0514 -13.6619 0.691102 36.4466 -5.35147 -0.0854197 0.00786309 0.548615 1.75803 -0.00098459 0.00646631 -7.41198 -0.00176352 -0.00831482 
0.848465 97.9701 -20.5755 173.132 -89.9299 173.05 -170.602 3.44262 91.5903 -10.4097 9.09055 3.43219 64.0873 0.701729 0.326319 28.7808 5.48165e-006 3.92305e-006 -179.94 5.83052 90.553 -15.547 -0.3696 -0.0517686 64.5166 -3.22295 -1.77339 28.7808 1.43713e-005 2.75681e-005 -0.00552988 6.35202 -89.9149 14.1699 0.00122583 -0.0100271 2.4989 0.000783501 -0.0100814 -20.0363 0.00417548 -0.00920052 -0.023604 0.00418606 -0.00919138 100.785 -19.014 -85.5234 -10.3042 35.2855 -13.4466 5.10894 0.0454081 -8.60445 -5.37983 -0.320016 -0.0162396 -79.342 -21.9924 93.5793 11.9153 -36.109 -13.7642 0.474862 35.8365 -5.24415 0.607915 0.0495304 1.01063 1.83911 -0.0190534 0.119378 -7.43545 -0.0334311 -0.142812 
0.890485 98.0895 -20.6135 166.285 -89.8723 166.415 -170.597 3.06041 91.7775 -9.60823 9.09241 3.42793 63.6783 0.589158 0.269582 28.7808 5.48165e-006 3.92305e-006 -179.811 2.06121 90.6024 -8.10246 0.419917 0.0178425 62.9381 -1.093 -0.547821 28.7808 1.43713e-005 2.75681e-005 0.0247361 6.37012 -90.1214 14.1335 0.0234316 -0.0430248 2.46255 0.0215202 -0.0440147 -20.0726 0.0352771 -0.0339916 -0.0599667 0.0352715 -0.034002 100.883 -18.7673 -85.3308 -10.3148 35.2856 -13.3193 5.08954 0.0546291 -8.48864 -5.37983 -0.320016 -0.0162396 -79.3953 -22.114 93.4391 11.9606 -36.1516 -13.8983 0.104796 35.4427 -4.98185 1.61433 0.103369 1.19776 2.08388 -0.068431 0.343878 -7.54385 -0.109714 -0.282668 
0.940959 98.0667 -20.6691 144.364 -89.8429 144.469 -170.623 3.17168 91.7089 -9.77641 8.9324 3.34345 63.742 0.81106 0.395153 28.7808 5.48165e-006 3.92305e-006 -179.85 2.72044 90.595 -9.38245 0.339589 0.0100907 63.3204 -1.31486 -0.681712 28.7808 1.43713e-005 2.75681e-005 0.0230713 6.37201 -90.0863 14.1299 0.0278563 -0.029627 2.45894 0.0265253 -0.030833 -20.0762 0.0354786 -0.0198796 -0.0635741 0.0354648 -0.019896 100.883 -18.7597 -85.3313 -10.4487 35.3038 -12.9825 5.04775 0.0583322 -8.46344 -5.37983 -0.320016 -0.0162396 -79.3947 -21.8154 93.4197 11.8281 -36.1086 -14.0227 0.174288 35.9351 -4.90666 1.10982 0.0762493 1.11327 2.07654 -0.0929601 0.153345 -7.51687 -0.107838 -0.195151 
0.986124 98.1265 -20.7253 146.983 -89.822 147.181 -170.645 2.99916 91.771 -9.3731 9.15752 3.45348 63.5076 0.596373 0.274625 28.7808 5.48165e-006 3.92305e-006 -179.789 0.984409 90.6062 -5.79418 0.515539 0.00727995 61.7868 -1.00573 -0.473499 28.7808 1.43713e-005 2.75681e-005 0.0364878 6.38613 -90.18 14.1016 0.0356129 -0.0545918 2.43061 0.0331698 -0.0561246 -20.1045 0.0503746 -0.041367 -0.0919027 0.0503701 -0.0413786 100.936 -18.5566 -85.2116 -10.4947 35.3181 -12.8449 5.01387 0.0648338 -8.40944 -5.37983 -0.320016 -0.0162396 -79.3914 -21.8926 93.4316 12.1068 -35.9894 -13.9346 0.0785361 35.5342 -5.08072 0.841744 0.0690733 1.31345 2.07713 -0.0479797 0.413484 -7.35159 -0.0951183 -0.393559 
1.04088 98.1201 -20.7793 146.377 -89.788 146.538 -170.657 3.07488 91.7112 -9.52766 9.17227 3.43794 63.5077 0.598197 0.272223 28.7808 5.48165e-006 3.92305e-006 -179.834 1.54237 90.5468 -6.93872 0.459124 0.00561403 62.2856 -1.01813 -0.491351 28.7808 1.43713e-005 2.75681e-005 0.0308082 6.38213 -90.1347 14.1097 0.0351198 -0.0325506 2.43872 0.0336523 -0.0340656 -20.0964 0.0432759 -0.0204871 -0.0837841 0.043273 -0.0204949 100.934 -18.5692 -85.214 -10.5773 35.3392 -12.6317 4.99294 0.0652367 -8.39513 -5.37983 -0.320016 -0.0162396 -79.3548 -21.4824 93.489 11.8455 -36.0729 -14.0493 0.28204 36.0874 -5.03242 0.553486 0.055316 1.33753 1.83414 -0.0520126 0.108757 -7.23552 -0.0627987 -0.156351 
1.0956 98.1005 -20.8397 145.283 -89.8072 145.431 -170.688 3.13713 91.6577 -9.56407 9.12317 3.41013 63.5572 0.717693 0.340835 28.7808 5.48165e-006 3.92305e-006 -179.87 2.13376 90.5061 -8.02954 0.416692 0.00612279 62.7137 -1.11262 -0.554347 28.7808 1.43713e-005 2.75681e-005 0.0299437 6.38443 -90.1239 14.1066 0.0340534 -0.0375135 2.43564 0.0323719 -0.0389915 -20.0995 0.0437531 -0.0255424 -0.086868 0.0437533 -0.0255543 100.979 -18.4718 -85.112 -10.5695 35.3786 -12.6161 4.94927 0.0656593 -8.40326 -5.37983 -0.320016 -0.0162396 -79.2921 -21.3571 93.6174 11.7819 -36.1545 -14.1289 0.506593 36.6052 -5.19865 0.274144 0.0515783 1.77422 1.77284 -0.0361558 0.113673 -7.26148 -0.0485813 -0.117106 
1.1556 98.0882 -20.8947 147.955 -89.8249 148.08 -170.724 3.20759 91.5956 -9.63796 9.02606 3.37708 63.5551 0.72696 0.344395 28.7808 5.48165e-006 3.92305e-006 -179.907 2.53904 90.4657 -8.75624 0.303646 0.00987352 62.9321 -1.22964 -0.626395 28.7808 1.43713e-005 2.75681e-005 0.0170473 6.38978 -90.1012 14.1092 0.0134133 -0.0260154 2.43821 0.0122581 -0.0265763 -20.097 0.0206172 -0.020771 -0.0843006 0.0206073 -0.0207806 100.923 -18.5195 -85.2479 -10.6572 35.4475 -12.5286 4.89456 0.0660718 -8.37256 -5.37983 -0.320016 -0.0162396 -79.1912 -21.169 93.8328 11.8083 -36.1109 -14.0925 0.498268 36.3944 -5.21373 0.154953 0.0395169 1.52017 1.56719 -0.0017549 -0.0151594 -7.22664 0.00184667 -0.0339432 
1.21181 98.1246 -20.9436 162.979 -89.7888 163.131 -170.723 3.15858 91.6007 -9.59584 9.14767 3.42439 63.4678 0.657672 0.30301 28.7808 5.48165e-006 3.92305e-006 -179.867 0.7995 90.3859 -5.27915 0.439308 0.0211662 61.77 -0.629185 -0.255961 28.7808 1.43713e-005 2.75681e-005 0.0178097 6.39402 -90.1179 14.0923 0.00938505 -0.0435209 2.42134 0.00746144 -0.0438999 -20.1138 0.022026 -0.0386885 -0.10116 0.0220261 -0.0386971 100.92 -18.3861 -85.2659 -10.6458 35.444 -12.4714 4.87869 0.0664675 -8.34756 -5.37983 -0.320016 -0.0162396 -79.1434 -21.1429 93.9384 11.829 -36.1111 -14.0887 0.436757 36.2621 -5.20174 0.295234 0.0494473 1.63985 1.38565 -0.00706832 0.0344061 -7.12892 -0.00872417 -0.081706 
1.2706 98.1218 -20.9933 171.225 -89.78 171.39 -170.746 3.15249 91.5717 -9.57314 9.12854 3.41672 63.4466 0.749286 0.355452 28.7808 5.48165e-006 3.92305e-006 -179.881 0.987605 90.412 -5.62689 0.580274 0.0285401 61.8215 -0.568497 -0.219933 28.7808 1.43713e-005 2.75681e-005 0.0245167 6.39467 -90.1212 14.0845 0.0219771 -0.0459534 2.41356 0.0199312 -0.0468875 -20.1216 0.0347699 -0.0372266 -0.108953 0.0347722 -0.0372276 100.941 -18.3946 -85.2147 -10.637 35.4519 -12.4367 4.86485 0.066846 -8.33362 -5.37983 -0.320016 -0.0162396 -79.1499 -21.0322 93.914 11.837 -36.1345 -14.0532 0.640938 36.7206 -5.3647 -0.255928 0.0287299 2.07653 1.22299 -0.0435553 -0.120468 -7.09648 -0.0246988 -0.00397555 
1.3431 98.0664 -21.0396 163.631 -89.7905 163.727 -170.796 3.27854 91.4559 -9.76197 8.89497 3.31152 63.5991 0.941622 0.46545 28.7808 5.48165e-006 3.92305e-006 -179.985 3.47976 90.3336 -10.5611 0.194562 -0.000440817 63.431 -1.50878 -0.795855 28.7808 1.43713e-005 2.75681e-005 0.0298581 6.38986 -90.0423 14.0942 0.0569729 0.0211046 2.42321 0.0578471 0.0185676 -20.112 0.0480017 0.0372473 -0.0993065 0.0479977 0.0372477 100.982 -18.8032 -85.0792 -10.6921 35.4577 -12.3653 4.86005 0.0672022 -8.36372 -5.37983 -0.320016 -0.0162396 -79.153 -20.3599 93.8722 11.4723 -35.994 -14.2045 0.577409 36.8647 -5.27145 -0.0581963 0.0377145 1.97224 1.02374 -0.18401 -1.10707 -7.12217 -0.0457707 0.604358 
1.38407 98.1225 -21.0824 169.867 -89.6799 170.031 -170.775 3.10435 91.5198 -9.5768 9.04568 3.37997 63.4555 0.708012 0.332316 28.7808 5.48165e-006 3.92305e-006 -179.92 0.743746 90.2801 -5.21982 0.471427 0.023098 61.7301 -0.435046 -0.140427 28.7808 1.43713e-005 2.75681e-005 0.0253773 6.40897 -90.1209 14.0559 0.024574 -0.041701 2.38498 0.0227183 -0.0427491 -20.1502 0.0359598 -0.0323909 -0.137515 0.0359723 -0.0323863 100.961 -18.5419 -85.1559 -10.6894 35.4039 -12.3929 4.90238 0.0675563 -8.32435 -5.37983 -0.320016 -0.0162396 -79.0817 -20.8285 94.0566 11.6324 -36.08 -14.251 0.561334 36.7997 -5.31661 0.0409566 0.0474889 2.17838 0.933953 -0.0812751 -0.502791 -7.06291 -0.0139962 0.177456 
1.42907 98.1222 -21.1414 167.327 -89.6598 167.497 -170.87 3.22653 91.4537 -9.80194 8.94962 3.48156 63.516 0.494713 0.211053 28.7808 5.48165e-006 3.92305e-006 -179.937 0.841441 90.2949 -5.40107 0.539124 0.0268367 61.8315 -0.313032 -0.0708513 28.7808 1.43713e-005 2.75681e-005 0.0369504 6.39877 -90.0859 14.0763 0.063302 0.0153531 2.40536 0.0639148 0.0125352 -20.1298 0.0557609 0.0336666 -0.117151 0.0557566 0.0336576 100.939 -18.9389 -85.1773 -10.836 35.3788 -12.1199 4.92414 0.0678833 -8.36465 -5.37983 -0.320016 -0.0162396 -79.2204 -20.1504 93.7033 11.3746 -35.9362 -14.11 0.321199 36.4168 -5.01493 0.466147 0.0620612 1.7835 0.472772 -0.206413 -1.4292 -6.82117 -0.030617 0.730344 
1.49858 98.086 -21.1785 161.243 -89.6839 161.373 -170.832 3.22399 91.4027 -9.69133 9.01678 3.32055 63.5105 1.06758 0.537118 28.7808 5.48165e-006 3.92305e-006 179.988 2.87947 90.2441 -9.37863 0.208588 0.0031516 63.0097 -1.28081 -0.658776 28.7808 1.43713e-005 2.75681e-005 0.0183904 6.40833 -90.087 14.0572 0.0177031 -0.0300473 2.3863 0.0163611 -0.0308002 -20.1489 0.025914 -0.0233361 -0.136212 0.0259131 -0.0233471 100.93 -18.7933 -85.2106 -10.7602 35.3792 -12.2991 4.92006 0.0682066 -8.3516 -5.37983 -0.320016 -0.0162396 -79.0076 -20.5417 94.2139 11.2645 -35.9223 -14.474 0.535611 36.8789 -5.2898 -0.0671879 0.0408064 2.14804 0.802262 -0.104285 -0.977307 -7.24484 0.0163023 0.510403 
1.53766 98.1257 -21.2196 165.951 -89.5828 166.118 -170.812 3.10805 91.4345 -9.62205 9.17527 3.38519 63.429 0.915633 0.449493 28.7808 5.48165e-006 3.92305e-006 -179.966 0.691871 90.187 -5.13963 0.496703 0.0247295 61.6893 -0.314819 -0.0695299 28.7808 1.43713e-005 2.75681e-005 0.0198457 6.41912 -90.1259 14.0356 0.0066705 -0.0766252 2.36468 0.00329436 -0.0768551 -20.1705 0.0293918 -0.0710848 -0.157808 0.029394 -0.0710833 100.903 -18.5761 -85.2921 -10.7496 35.3322 -12.2345 4.95258 0.0685173 -8.34183 -5.37983 -0.320016 -0.0162396 -79.0654 -20.8323 94.0996 11.4624 -35.9245 -14.2969 0.440041 36.7248 -5.28128 0.109364 0.0541066 2.29999 0.689892 -0.0535757 -0.514759 -7.20015 0.0131831 0.181338 
1.58606 98.1445 -21.2668 164.883 -89.5467 165.031 -170.819 3.18873 91.3962 -9.79542 9.2623 3.42904 63.373 0.721281 0.332968 28.7808 5.48165e-006 3.92305e-006 -179.98 0.697921 90.1532 -5.17414 0.511367 0.0257999 61.7174 -0.216101 -0.0134153 28.7808 1.43713e-005 2.75681e-005 0.0245975 6.42667 -90.0912 14.0205 0.0222089 -0.0753958 2.34958 0.0188732 -0.0763177 -20.1856 0.0438375 -0.0652404 -0.17292 0.0438427 -0.065239 100.934 -18.667 -85.2123 -10.7183 35.348 -12.2537 4.93368 0.0688125 -8.35416 -5.37983 -0.320016 -0.0162396 -79.0874 -20.7251 94.0399 11.3564 -35.904 -14.3719 0.407466 36.6229 -5.25837 0.170788 0.0586444 2.34238 0.776564 -0.0992593 -0.782696 -7.2716 -0.00321839 0.418961 
1.6469 98.0926 -21.3264 159.951 -89.6787 160.12 -170.89 3.24993 91.3439 -9.57726 8.97476 3.28029 63.4435 1.23061 0.631889 28.7808 5.48165e-006 3.92305e-006 179.957 2.62629 90.1526 -8.66854 0.206437 0.00422815 62.6598 -1.16078 -0.582845 28.7808 1.43713e-005 2.75681e-005 0.0315862 6.41448 -90.1291 14.045 0.0305364 -0.0692309 2.37406 0.0274575 -0.0705297 -20.1611 0.0499231 -0.0568629 -0.148433 0.0499311 -0.0568674 100.931 -18.7012 -85.216 -10.6728 35.3049 -12.2423 4.93764 0.0690933 -8.38573 -5.37983 -0.320016 -0.0162396 -79.079 -20.6121 94.0545 11.2122 -35.8843 -14.4419 0.470178 36.82 -5.23026 0.0510987 0.0477639 2.16209 0.963281 -0.0929564 -0.881136 -7.56637 0.0148885 0.471304 
